<?xml version="1.0" encoding="UTF-8" standalone="no"?>
<!-- Created with Inkscape (http://www.inkscape.org/) -->

<svg
   width="250mm"
   height="150mm"
   viewBox="0 0 250 150"
   version="1.1"
   id="svg5"
   xml:space="preserve"
   inkscape:version="1.2.2 (b0a8486541, 2022-12-01)"
   sodipodi:docname="logotipo.svg"
   xmlns:inkscape="http://www.inkscape.org/namespaces/inkscape"
   xmlns:sodipodi="http://sodipodi.sourceforge.net/DTD/sodipodi-0.dtd"
   xmlns="http://www.w3.org/2000/svg"
   xmlns:svg="http://www.w3.org/2000/svg"><sodipodi:namedview
     id="namedview7"
     pagecolor="#ffffff"
     bordercolor="#000000"
     borderopacity="0.25"
     inkscape:showpageshadow="2"
     inkscape:pageopacity="0.0"
     inkscape:pagecheckerboard="0"
     inkscape:deskcolor="#d1d1d1"
     inkscape:document-units="mm"
     showgrid="false"
     inkscape:zoom="0.53182881"
     inkscape:cx="632.7224"
     inkscape:cy="413.66695"
     inkscape:window-width="1366"
     inkscape:window-height="736"
     inkscape:window-x="0"
     inkscape:window-y="0"
     inkscape:window-maximized="1"
     inkscape:current-layer="layer1" /><defs
     id="defs2" /><g
     inkscape:label="Capa 1"
     inkscape:groupmode="layer"
     id="layer1"><g
       id="g32814"
       transform="translate(-106.5594,-76.354993)"><path
         style="opacity:1;fill:#4f81a2;fill-opacity:1;stroke-width:0.264583"
         d="m 150.77257,179.81119 29.17903,-20.86233 0.96181,-8.35565 -1.76736,-0.0354 0.40367,-4.19877 11.37026,0.29578 -0.0542,3.42812 -2.02203,0.49952 -0.11821,3.51531 23.47968,-15.9388 40.39813,36.38515 14.71832,-0.24875 23.32206,-22.44042 10.53711,11.57449 0.0581,-1.95039 -1.39166,-0.14522 0.0364,-3.41267 5.88102,0.15125 -0.0391,3.01682 -1.34723,-0.13333 -0.30094,6.9916 9.93134,11.58718 -6.2518,-0.2901 -16.99779,-20.88674 -22.33926,21.04128 -18.11721,0.12763 -38.7787,-33.66818 -52.37985,33.74944 z"
         id="path3875"
         sodipodi:nodetypes="ccccccccccccccccccccccccccccc" /><path
         style="opacity:1;fill:#77797b;fill-opacity:1;stroke-width:0.264583"
         d="m 166.64323,176.54162 44.61293,-29.29197 36.51457,32.31216 -16.67045,0.41186 8.2877,-3.60419 -28.00146,-23.83775 z"
         id="path3980" /><path
         style="opacity:1;fill:#000000;fill-opacity:0.454902;stroke-width:0.264583"
         d="m 284.8257,179.12914 -7.80833,-2.19504 13.35339,-13.0502 15.67315,14.72484 -15.4614,-18.8806 -20.30752,19.61141 z"
         id="path3982" /><path
         style="opacity:1;fill:#000000;fill-opacity:0.454902;stroke-width:0.264583"
         d="m 202.52496,161.33949 14.16772,0.16659 -0.11025,13.7565 -14.28166,-0.0346 z"
         id="path3984"
         sodipodi:nodetypes="ccccc" /><path
         style="opacity:1;fill:#ffffff;fill-opacity:0.454902;stroke-width:0.0968633"
         d="m 203.48839,162.20908 5.0622,0.0624 -0.0394,5.16018 -5.10291,-0.0129 z"
         id="path3986"
         sodipodi:nodetypes="ccccc" /><path
         style="opacity:1;fill:#ffffff;fill-opacity:0.454902;stroke-width:0.0968633"
         d="m 210.55112,162.32198 5.0622,0.0624 -0.0394,5.16018 -5.10291,-0.0129 z"
         id="path3988"
         sodipodi:nodetypes="ccccc" /><path
         style="opacity:1;fill:#ffffff;fill-opacity:0.454902;stroke-width:0.0968633"
         d="m 203.56054,169.09529 5.0622,0.0624 -0.0394,5.16018 -5.10291,-0.0129 z"
         id="path3990"
         sodipodi:nodetypes="ccccc" /><path
         style="opacity:1;fill:#ffffff;fill-opacity:0.454902;stroke-width:0.0968633"
         d="m 210.52507,169.09803 5.0622,0.0624 -0.0394,5.16018 -5.10291,-0.0129 z"
         id="path3992"
         sodipodi:nodetypes="ccccc" /><path
         style="opacity:1;fill:#000000;fill-opacity:0.454902;stroke-width:0.122505"
         d="m 287.22145,169.08533 6.07785,0.0832 -0.0472,6.87454 -6.12673,-0.0173 z"
         id="path3994"
         sodipodi:nodetypes="ccccc" /><path
         style="opacity:1;fill:#ffffff;fill-opacity:0.454902;stroke-width:0.0448488"
         d="m 287.63475,169.51988 2.17165,0.0312 -0.0169,2.5787 -2.1891,-0.006 z"
         id="path3996"
         sodipodi:nodetypes="ccccc" /><path
         style="opacity:1;fill:#ffffff;fill-opacity:0.454902;stroke-width:0.0448488"
         d="m 290.66461,169.57631 2.17163,0.0312 -0.0168,2.57869 -2.18911,-0.006 z"
         id="path3998"
         sodipodi:nodetypes="ccccc" /><path
         style="opacity:1;fill:#ffffff;fill-opacity:0.454902;stroke-width:0.0448488"
         d="m 287.66571,172.96113 2.17164,0.0312 -0.0168,2.57869 -2.18911,-0.006 z"
         id="path4000"
         sodipodi:nodetypes="ccccc" /><path
         style="opacity:1;fill:#ffffff;fill-opacity:0.454902;stroke-width:0.0448488"
         d="m 290.65343,172.96251 2.17164,0.0312 -0.0168,2.5787 -2.1891,-0.006 z"
         id="path4002"
         sodipodi:nodetypes="ccccc" /><path
         style="opacity:1;fill:#000000;fill-opacity:0.454902;stroke-width:0.132612"
         d="m 255.64949,159.4556 7.07736,0.0837 -0.055,6.91799 -7.13428,-0.0174 z"
         id="path4004"
         sodipodi:nodetypes="ccccc" /><path
         style="opacity:1;fill:#ffffff;fill-opacity:0.454902;stroke-width:0.0485489"
         d="m 256.13075,159.89289 2.52878,0.0314 -0.0197,2.595 -2.5491,-0.006 z"
         id="path4006"
         sodipodi:nodetypes="ccccc" /><path
         style="opacity:1;fill:#ffffff;fill-opacity:0.454902;stroke-width:0.0485489"
         d="m 259.65888,159.94968 2.52875,0.0314 -0.0196,2.59498 -2.54911,-0.006 z"
         id="path4008"
         sodipodi:nodetypes="ccccc" /><path
         style="opacity:1;fill:#ffffff;fill-opacity:0.454902;stroke-width:0.0485489"
         d="m 256.16681,163.35589 2.52877,0.0314 -0.0196,2.59499 -2.54911,-0.006 z"
         id="path4010"
         sodipodi:nodetypes="ccccc" /><path
         style="opacity:1;fill:#ffffff;fill-opacity:0.454902;stroke-width:0.0485489"
         d="m 259.64586,163.35728 2.52877,0.0314 -0.0196,2.595 -2.54909,-0.006 z"
         id="path4012"
         sodipodi:nodetypes="ccccc" /><path
         style="opacity:1;fill:#4d82a2;fill-opacity:1;stroke-width:0.264583"
         d="m 226.66055,149.18467 26.37757,1.47883 -6.81204,7.50192 13.58611,-11.92492 12.76661,13.17827 -6.26385,-8.12424 22.08101,1.43527 -13.54553,12.17766 -14.7432,-11.7012 -17.72631,11.25755 z"
         id="path4014" /><path
         style="opacity:1;fill:#a19f9f;fill-opacity:1;stroke-width:0.264583"
         d="m 246.9378,118.85889 -0.0614,-9.16827 6.87293,-5.24538 5.78021,3.9006 -0.25095,1.01408 -5.16918,-3.2528 -0.89969,18.86855 z"
         id="path4016"
         sodipodi:nodetypes="cccccccc" /><path
         style="opacity:1;fill:#a19f9f;fill-opacity:1;stroke-width:0.264583"
         d="m 230.57011,121.68993 -0.1063,-2.12638 11.80481,-4.22111 10.90439,11.63081 -1.01288,22.12638 -11.61863,-0.1707 1.19771,-30.75744 z"
         id="path4018"
         sodipodi:nodetypes="cccccccc" /><path
         style="opacity:1;fill:#a19f9f;fill-opacity:1;stroke-width:0.264583"
         d="m 254.40661,115.22806 11.62145,-8.77126 9.07539,6.15066 0.16291,1.55356 -8.93567,-5.7372 -1.47645,40.15657 -4.976,-3.74256 -5.42324,4.6408 -1.18413,-0.25143 z"
         id="path4020" /><path
         style="opacity:1;fill:#a19f9f;fill-opacity:1;stroke-width:0.264583"
         d="m 230.78985,122.94504 9.48008,-3.53329 0.30505,1.34525 -7.14495,2.62738 0.0398,1.40193 -0.62576,0.0344 -0.5876,-0.91144 z"
         id="path4022"
         sodipodi:nodetypes="cccccccc" /><path
         style="opacity:1;fill:#a19f9f;fill-opacity:1;stroke-width:0.264583"
         d="m 230.65682,127.72187 9.48008,-3.53329 0.30505,1.34525 -7.14495,2.62738 0.0398,1.40193 -0.62576,0.0344 -0.5876,-0.91144 z"
         id="path4024"
         sodipodi:nodetypes="cccccccc" /><path
         style="opacity:1;fill:#a19f9f;fill-opacity:1;stroke-width:0.264583"
         d="m 230.67598,132.29336 9.48008,-3.53329 0.30505,1.34525 -7.14495,2.62738 0.0398,1.40193 -0.62576,0.0344 -0.5876,-0.91144 z"
         id="path4026"
         sodipodi:nodetypes="cccccccc" /><path
         style="opacity:1;fill:#a19f9f;fill-opacity:1;stroke-width:0.264583"
         d="m 230.45839,137.025 9.48008,-3.53329 0.30505,1.34525 -7.14495,2.62738 0.0398,1.40193 -0.62576,0.0344 -0.5876,-0.91144 z"
         id="path4028"
         sodipodi:nodetypes="cccccccc" /><path
         style="opacity:1;fill:#a19f9f;fill-opacity:1;stroke-width:0.264583"
         d="m 229.89339,141.77584 9.48008,-3.53329 0.30505,1.34525 -7.14495,2.62738 0.0398,1.40193 -0.62576,0.0344 -0.5876,-0.91144 z"
         id="path4030"
         sodipodi:nodetypes="cccccccc" /><path
         style="opacity:1;fill:#a19f9f;fill-opacity:1;stroke-width:0.264583"
         d="m 229.90142,146.76402 9.21763,-3.94061 -0.17227,1.67198 c 0,0 -5.98416,2.60432 -6.30992,2.75492 -0.32576,0.1506 -2.73545,-0.48629 -2.73545,-0.48629 z"
         id="path4032"
         sodipodi:nodetypes="cccscc" /><path
         style="opacity:1;fill:#a19f9f;fill-opacity:1;stroke-width:0.264583"
         d="m 266.95923,111.1176 8.4e-4,1.78097 4.93741,3.4248 0.0871,1.40906 0.56832,0.54932 2.47957,-1.50404 z"
         id="path4034"
         sodipodi:nodetypes="ccccccc" /><path
         style="opacity:1;fill:#a19f9f;fill-opacity:1;stroke-width:0.264583"
         d="m 267.08395,115.55983 8.4e-4,1.78097 4.93741,3.4248 0.0871,1.40906 0.56832,0.54932 2.47957,-1.50404 z"
         id="path4036"
         sodipodi:nodetypes="ccccccc" /><path
         style="opacity:1;fill:#a19f9f;fill-opacity:1;stroke-width:0.264583"
         d="m 266.8107,120.05489 8.4e-4,1.78097 4.93741,3.4248 0.0871,1.40906 0.56832,0.54932 2.47957,-1.50404 z"
         id="path4038"
         sodipodi:nodetypes="ccccccc" /><path
         style="opacity:1;fill:#a19f9f;fill-opacity:1;stroke-width:0.264583"
         d="m 266.62035,124.60139 8.4e-4,1.78097 4.93741,3.4248 0.0871,1.40906 0.56832,0.54932 2.47957,-1.50404 z"
         id="path4040"
         sodipodi:nodetypes="ccccccc" /><path
         style="opacity:1;fill:#a19f9f;fill-opacity:1;stroke-width:0.264583"
         d="m 266.44769,129.22072 8.4e-4,1.78097 4.93741,3.4248 0.0871,1.40906 0.56832,0.54932 2.47957,-1.50404 z"
         id="path4042"
         sodipodi:nodetypes="ccccccc" /><path
         style="opacity:1;fill:#a19f9f;fill-opacity:1;stroke-width:0.264583"
         d="m 266.4617,133.80011 8.4e-4,1.78097 4.93741,3.4248 0.0871,1.40906 0.56832,0.54932 2.47957,-1.50404 z"
         id="path4044"
         sodipodi:nodetypes="ccccccc" /><path
         style="opacity:1;fill:#a19f9f;fill-opacity:1;stroke-width:0.264583"
         d="m 266.32978,138.4037 8.4e-4,1.78097 4.93741,3.4248 0.0871,1.40906 0.56832,0.54932 2.47957,-1.50404 z"
         id="path4046"
         sodipodi:nodetypes="ccccccc" /><path
         style="opacity:1;fill:#a19f9f;fill-opacity:1;stroke-width:0.264583"
         d="m 266.09717,143.116 8.4e-4,1.78097 4.93741,3.4248 0.0871,1.40906 0.56832,0.54932 2.47957,-1.50404 z"
         id="path4048"
         sodipodi:nodetypes="ccccccc" /><text
         xml:space="preserve"
         style="font-style:normal;font-variant:normal;font-weight:bold;font-stretch:normal;font-size:15.1164px;font-family:'DejaVu Sans';-inkscape-font-specification:'DejaVu Sans, Bold';font-variant-ligatures:normal;font-variant-caps:normal;font-variant-numeric:normal;font-variant-east-asian:normal;opacity:1;fill:#397aa4;fill-opacity:1;stroke-width:0.283432"
         x="139.8331"
         y="203.26216"
         id="text4104"
         transform="scale(1.0434866,0.95832569)"><tspan
           sodipodi:role="line"
           id="tspan4102"
           style="font-style:normal;font-variant:normal;font-weight:bold;font-stretch:normal;font-size:15.1164px;font-family:'DejaVu Sans';-inkscape-font-specification:'DejaVu Sans, Bold';font-variant-ligatures:normal;font-variant-caps:normal;font-variant-numeric:normal;font-variant-east-asian:normal;fill:#397aa4;fill-opacity:1;stroke-width:0.283432"
           x="139.8331"
           y="203.26216">DS CONSTRUCTION</tspan></text></g></g></svg>
